
<!-- 
    Cores: none, black, gray, white, red, green, blue, orange, yellow, cyan, purple...
    HEX: #00FF90...
 -->

<svg width="107" height="107" viewBox="0 0 57 57" fill="none" xmlns="http://www.w3.org/2000/svg">

    <!-- [ ] -->
    <rect fill="none" x="3" y="3" width="50" height="50"/>

    <!-- | -->
    <g filter="url(#filter0_f)">
        <path fill="none" stroke="#00FF90" stroke-width="0.5" d="M37.75 28C37.75 34.6027 36.6344 40.5685 34.8403 44.8744C33.943 47.0279 32.8809 48.7543 31.7144 49.9385C30.5486 51.1218 29.2936 51.75 28 51.75C26.7064 51.75 25.4514 51.1218 24.2856 49.9385C23.1191 48.7543 22.057 47.0279 21.1597 44.8744C19.3656 40.5685 18.25 34.6027 18.25 28C18.25 21.3973 19.3656 15.4315 21.1597 11.1256C22.057 8.9721 23.1191 7.2457 24.2856 6.06148C25.4514 4.87815 26.7064 4.25 28 4.25C29.2936 4.25 30.5486 4.87815 31.7144 6.06148C32.8809 7.2457 33.943 8.9721 34.8403 11.1256C36.6344 15.4315 37.75 21.3973 37.75 28Z"/>
    </g>

    <!-- - -->
    <g filter="url(#filter1_f)">
        <path fill="none" stroke="#00FF90" stroke-width="0.5" d="M28 18.25C34.6027 18.25 40.5685 19.3656 44.8744 21.1597C47.0279 22.057 48.7543 23.1191 49.9385 24.2856C51.1218 25.4514 51.75 26.7064 51.75 28C51.75 29.2936 51.1218 30.5486 49.9385 31.7144C48.7543 32.8809 47.0279 33.943 44.8744 34.8403C40.5685 36.6344 34.6027 37.75 28 37.75C21.3973 37.75 15.4315 36.6344 11.1256 34.8403C8.9721 33.943 7.2457 32.8809 6.06148 31.7144C4.87815 30.5486 4.25 29.2936 4.25 28C4.25 26.7064 4.87815 25.4514 6.06148 24.2856C7.2457 23.1191 8.9721 22.057 11.1256 21.1597C15.4315 19.3656 21.3973 18.25 28 18.25Z"/>
    </g>

    <!-- \ -->
    <g filter="url(#filter2_f)">
        <path fill="none" stroke="#00FF90" stroke-width="0.5" d="M34.9359 21.1473C39.6047 25.8161 43.0344 30.8235 44.8105 35.1368C45.6987 37.294 46.1685 39.2658 46.1809 40.9281C46.1934 42.5891 45.7501 43.9207 44.8354 44.8354C43.9207 45.7501 42.5891 46.1934 40.9281 46.1809C39.2658 46.1685 37.294 45.6987 35.1368 44.8105C30.8235 43.0344 25.8161 39.6047 21.1473 34.9359C16.4786 30.2671 13.0489 25.2598 11.2728 20.9464C10.3845 18.7892 9.91478 16.8175 9.90231 15.1552C9.88985 13.4942 10.3331 12.1626 11.2478 11.2478C12.1626 10.3331 13.4942 9.88986 15.1552 9.90231C16.8175 9.91478 18.7892 10.3845 20.9464 11.2728C25.2598 13.0489 30.2671 16.4786 34.9359 21.1473Z"/>
    </g>

    <!-- / -->
    <g filter="url(#filter3_f)">
        <path fill="none" stroke="#00FF90" stroke-width="0.5" d="M21.1473 21.1473C25.8161 16.4786 30.8235 13.0489 35.1368 11.2728C37.294 10.3845 39.2658 9.91478 40.9281 9.90231C42.5891 9.88985 43.9207 10.3331 44.8354 11.2478C45.7501 12.1626 46.1934 13.4942 46.1809 15.1552C46.1685 16.8175 45.6987 18.7892 44.8105 20.9464C43.0344 25.2598 39.6047 30.2671 34.9359 34.9359C30.2671 39.6047 25.2598 43.0344 20.9464 44.8105C18.7892 45.6987 16.8175 46.1685 15.1552 46.1809C13.4942 46.1934 12.1626 45.7501 11.2478 44.8354C10.3331 43.9207 9.88986 42.5891 9.90231 40.9281C9.91478 39.2658 10.3845 37.294 11.2728 35.1368C13.0489 30.8235 16.4786 25.8161 21.1473 21.1473Z"/>
    </g>

    <!-- o -->
    <g filter="url(#filter4_f)">
        <circle fill="#00FF90" cx="28" cy="28" r="2.5"/>
    </g>

    <!-- | -->
    <path fill="none" stroke="#00FF90" stroke-width="0.5" d="M37.75 28C37.75 34.6027 36.6344 40.5685 34.8403 44.8744C33.943 47.0279 32.8809 48.7543 31.7144 49.9385C30.5486 51.1218 29.2936 51.75 28 51.75C26.7064 51.75 25.4514 51.1218 24.2856 49.9385C23.1191 48.7543 22.057 47.0279 21.1597 44.8744C19.3656 40.5685 18.25 34.6027 18.25 28C18.25 21.3973 19.3656 15.4315 21.1597 11.1256C22.057 8.9721 23.1191 7.2457 24.2856 6.06148C25.4514 4.87815 26.7064 4.25 28 4.25C29.2936 4.25 30.5486 4.87815 31.7144 6.06148C32.8809 7.2457 33.943 8.9721 34.8403 11.1256C36.6344 15.4315 37.75 21.3973 37.75 28Z"/>

    <!-- - -->
    <path fill="none" stroke="#00FF90" stroke-width="0.5" d="M28 18.25C34.6027 18.25 40.5685 19.3656 44.8744 21.1597C47.0279 22.057 48.7543 23.1191 49.9385 24.2856C51.1218 25.4514 51.75 26.7064 51.75 28C51.75 29.2936 51.1218 30.5486 49.9385 31.7144C48.7543 32.8809 47.0279 33.943 44.8744 34.8403C40.5685 36.6344 34.6027 37.75 28 37.75C21.3973 37.75 15.4315 36.6344 11.1256 34.8403C8.9721 33.943 7.2457 32.8809 6.06148 31.7144C4.87815 30.5486 4.25 29.2936 4.25 28C4.25 26.7064 4.87815 25.4514 6.06148 24.2856C7.2457 23.1191 8.9721 22.057 11.1256 21.1597C15.4315 19.3656 21.3973 18.25 28 18.25Z"/>

    <!-- \ -->
    <path fill="none" stroke="#00FF90" stroke-width="0.5" d="M34.9359 21.1473C39.6047 25.8161 43.0344 30.8235 44.8105 35.1368C45.6987 37.294 46.1685 39.2658 46.1809 40.9281C46.1934 42.5891 45.7501 43.9207 44.8354 44.8354C43.9207 45.7501 42.5891 46.1934 40.9281 46.1809C39.2658 46.1685 37.294 45.6987 35.1368 44.8105C30.8235 43.0344 25.8161 39.6047 21.1473 34.9359C16.4786 30.2671 13.0489 25.2598 11.2728 20.9464C10.3845 18.7892 9.91478 16.8175 9.90231 15.1552C9.88985 13.4942 10.3331 12.1626 11.2478 11.2478C12.1626 10.3331 13.4942 9.88986 15.1552 9.90231C16.8175 9.91478 18.7892 10.3845 20.9464 11.2728C25.2598 13.0489 30.2671 16.4786 34.9359 21.1473Z"/>

    <!-- / -->
    <path fill="none" stroke="#00FF90" stroke-width="0.5" d="M21.1473 21.1473C25.8161 16.4786 30.8235 13.0489 35.1368 11.2728C37.294 10.3845 39.2658 9.91478 40.9281 9.90231C42.5891 9.88985 43.9207 10.3331 44.8354 11.2478C45.7501 12.1626 46.1934 13.4942 46.1809 15.1552C46.1685 16.8175 45.6987 18.7892 44.8105 20.9464C43.0344 25.2598 39.6047 30.2671 34.9359 34.9359C30.2671 39.6047 25.2598 43.0344 20.9464 44.8105C18.7892 45.6987 16.8175 46.1685 15.1552 46.1809C13.4942 46.1934 12.1626 45.7501 11.2478 44.8354C10.3331 43.9207 9.88986 42.5891 9.90231 40.9281C9.91478 39.2658 10.3845 37.294 11.2728 35.1368C13.0489 30.8235 16.4786 25.8161 21.1473 21.1473Z"/>

    <!-- o -->
    <circle fill="#00FF90" cx="28" cy="28" r="2.5"/>

    <!-- ! -->
    <defs>
        <filter id="filter0_f" x="14" y="0" width="28" height="56" filterUnits="userSpaceOnUse" color-interpolation-filters="RGB">
            <feFlood flood-opacity="0" result="BackgroundImageFix"/>
            <feBlend mode="normal" in="SourceGraphic" in2="BackgroundImageFix" result="shape"/>
            <feGaussianBlur stdDeviation="2" result="effect1_foregroundBlur"/>
        </filter>
        <filter id="filter1_f" x="0" y="14" width="56" height="28" filterUnits="userSpaceOnUse" color-interpolation-filters="RGB">
            <feFlood flood-opacity="0" result="BackgroundImageFix"/>
            <feBlend mode="normal" in="SourceGraphic" in2="BackgroundImageFix" result="shape"/>
            <feGaussianBlur stdDeviation="2" result="effect1_foregroundBlur"/>
        </filter>
        <filter id="filter2_f" x="0" y="2.38419e-07" width="56.0833" height="56.0833" filterUnits="userSpaceOnUse" color-interpolation-filters="RGB">
            <feFlood flood-opacity="0" result="BackgroundImageFix"/>
            <feBlend mode="normal" in="SourceGraphic" in2="BackgroundImageFix" result="shape"/>
            <feGaussianBlur stdDeviation="2" result="effect1_foregroundBlur"/>
        </filter>
        <filter id="filter3_f" x="2.38419e-07" y="-7.15256e-07" width="56.0833" height="56.0833" filterUnits="userSpaceOnUse" color-interpolation-filters="RGB">
            <feFlood flood-opacity="0" result="BackgroundImageFix"/>
            <feBlend mode="normal" in="SourceGraphic" in2="BackgroundImageFix" result="shape"/>
            <feGaussianBlur stdDeviation="2" result="effect1_foregroundBlur"/>
        </filter>
        <filter id="filter4_f" x="21.5" y="21.5" width="13" height="13" filterUnits="userSpaceOnUse" color-interpolation-filters="RGB">
            <feFlood flood-opacity="0" result="BackgroundImageFix"/>
            <feBlend mode="normal" in="SourceGraphic" in2="BackgroundImageFix" result="shape"/>
            <feGaussianBlur stdDeviation="2" result="effect1_foregroundBlur"/>
        </filter>
    </defs>
</svg>